<svg class="svgicon" id="svg55" preserveAspectRatio="xMidYMid meet" xmlns="http://www.w3.org/2000/svg" viewBox="0 0 128 128"><style> #svg55 path, #svg55 circle, #svg55 polygon, #svg55 rect { fill: rgb(237, 113, 158) } #svg55 defs &gt; path { fill: none }  #svg55 path[fill="none"], #svg55 circle[fill="none"], #svg55 polygon[fill="none"], #svg55 rect[fill="none"] { fill: none } </style><path d="M100.356,57.04c1.783-2.342,2.035-5.503,0.391-7.876c-1.892-2.731-5.641-3.479-8.764-1.902 c-0.4-0.373-1.226-0.303-1.947,0.197c-0.788,0.546-1.147,1.393-0.802,1.891c0.025,0.038,0.057,0.071,0.089,0.104 c-0.378,0.489-0.69,1.015-0.931,1.562l-7.949-21.013l3.82,0.657l-3.835-1.529c1.729-1.44,3.229-4.058,3.229-4.058 c-1.362,1.598-2.986,1.676-2.986,1.676c-0.026-0.026-0.053-0.052-0.079-0.077c-2.953-2.848-4.137-0.918-4.137-0.918 c1.429,0.363,3.067,2.988,3.094,3.029L51.876,17.765c0,0,1.116-8.224-8.528-6.701c-2.647,0.418-7.146,3.257-7.411,7.513 c-0.103,1.625-0.812,6.803,6.192,8.935c0,0,14.925,6.092,12.793,12.793c0,0-0.305,6.092-7.614,8.224c0,0-8.286,3.421-9.819,8.289 c-1.346,0.484-5.19,1.986-6.934,3.895c0,0-8.63,8.935-1.726,17.26c0,0,0.102-2.335,0.812-2.64l1.421,3.351 c0,0,1.016-4.162,1.828-4.67c0,0,2.03,2.944,2.538,3.147c0,0,1.624-4.771,3.249-6.193c0,0,0.313-0.296,0.901-0.744 c0.722,0.788,1.478,2.559,0.113,6.328c0,0,0.104,0.103,0.283,0.253l-7.745,9.113c0,0-1.295,1.675,1.751,2.36 c0,0,5.924,0.884,12.691,3.006c-0.021,2.979-0.072,6.347-0.178,9.685v10.208c-5.793,1.139-8.325,5.072-8.325,5.072 c-0.559,2.285,2.728-0.564,4.061-1.015c7.057-2.386,20.839,1.751,21.372,1.066c0.533-0.685-2.741-1.776-2.284-2.03 s1.853,1.117,1.853,0.304s-1.462-1.527-2.157-1.828c-4.201-1.816-9.341-1.776-9.341-1.776c-1.033-0.105-1.998-0.121-2.904-0.072 l1.393-18.426c0.892,0.329,1.782,0.68,2.662,1.054c0.422,1.22,1.168,3.699,0.804,5.07c0,0,0.8,0.304,1.066-0.457 c0.209-0.599,0.581-2.295,0.732-3.422c0.69,0.342,1.366,0.699,2.021,1.072c0.487,1.39,1.436,4.448,0.993,6.117 c0,0,0.945,0.36,1.26-0.541c0.221-0.63,0.595-2.296,0.8-3.594c2.109,1.578,3.802,3.38,4.777,5.431c0,0,0.762,0.38,0.838-1.6 c0,0,0.864-9.168-15.676-12.809l0.682-9.016c0.237,0.046,0.428,0.053,0.552,0.022c0,0-1.117-7.208,0-9.442 c0,0,0.996-3.981,2.63-6.59c1.577-0.769,3.187-1.648,4.436-2.542c-0.004,0.582,0.036,1.047,0.143,1.314 c0,0,3.352-1.828,4.569-4.568c0,0,0.914,2.132,0.609,4.264c0,0,4.568-4.264,3.959-8.833c0,0,0.813,1.523,1.016,2.335 c0,0,2.741-1.929,0.711-10.661c0,0-2.944-12.792-17.057-17.971c0,0-2.691-1.217-5.009-2.74l31.667,5.448L70.48,57.796l0.055,0 c-0.218,0.849-0.334,1.738-0.334,2.654c0,5.862,4.752,10.615,10.614,10.615S91.43,66.313,91.43,60.451 c0-0.335-0.021-0.665-0.051-0.992c1.647,0.771,3.629,0.847,5.474,0.166c0.03,0.079,0.066,0.155,0.114,0.225 c0.47,0.678,1.672,0.659,2.683-0.041c1.012-0.702,1.452-1.819,0.981-2.498C100.558,57.204,100.463,57.115,100.356,57.04z M44.87,20.069c-1.104,0-2-0.895-2-2c0-1.104,0.896-2,2-2s2,0.896,2,2C46.87,19.174,45.975,20.069,44.87,20.069z M91.646,51.724 c-0.517-0.746-0.297-1.791,0.489-2.335c0.787-0.546,1.844-0.384,2.36,0.361c0.516,0.745,0.296,1.791-0.492,2.335 C93.218,52.63,92.162,52.469,91.646,51.724z M96.77,56.591c-0.786,0.545-1.843,0.382-2.358-0.363 c-0.517-0.744-0.297-1.79,0.489-2.334c0.786-0.545,1.844-0.383,2.359,0.361C97.776,54.999,97.557,56.045,96.77,56.591z"></path><ellipse transform="matrix(-0.5699 -0.8217 0.8217 -0.5699 105.5879 164.6889)" cx="95.894" cy="54.711" rx="0.655" ry="0.693"></ellipse><ellipse transform="matrix(-0.5699 -0.8217 0.8217 -0.5699 104.9399 155.1624)" cx="93.078" cy="50.117" rx="0.656" ry="0.693"></ellipse></svg>