<svg class="svgicon" id="svg28" preserveAspectRatio="xMidYMid meet" xmlns="http://www.w3.org/2000/svg" viewBox="0 0 128 128"><rect x="0" y="0" width="128" height="128" style="fill: rgba(125, 31, 42, 0.25)" rx="64" ry="64"></rect><g transform="scale(0.69) translate(28.753623188405808, 28.753623188405808)"><style> #svg28 path, #svg28 circle, #svg28 polygon, #svg28 rect { fill: rgb(125, 31, 42) } #svg28 defs &gt; path { fill: none }  #svg28 path[fill="none"], #svg28 circle[fill="none"], #svg28 polygon[fill="none"], #svg28 rect[fill="none"] { fill: none } </style><path d="M88.125,18.41c-9.327,0-17.992,4.545-23.201,12.165l-1.076,1.367l-0.717-0.915C57.982,23.124,49.3,18.41,39.877,18.41 c-16.079,0-27.75,11.67-27.75,27.747c0,23.738,42.974,58.724,46.107,61.241c1.48,1.414,3.415,2.191,5.469,2.191 c2.055,0,3.99-0.777,5.471-2.193c3.145-2.535,46.699-38.073,46.699-61.239C115.873,30.08,104.204,18.41,88.125,18.41z"></path></g></svg>