<svg class="svgicon" id="svg33" preserveAspectRatio="xMidYMid meet" xmlns="http://www.w3.org/2000/svg" viewBox="0 0 128 128"><rect x="0" y="0" width="128" height="128" style="fill: rgba(116, 80, 43, 0.25)" rx="64" ry="64"></rect><g transform="scale(0.69) translate(28.753623188405808, 28.753623188405808)"><style> #svg33 path, #svg33 circle, #svg33 polygon, #svg33 rect { fill: rgb(116, 80, 43) } #svg33 defs &gt; path { fill: none }  #svg33 path[fill="none"], #svg33 circle[fill="none"], #svg33 polygon[fill="none"], #svg33 rect[fill="none"] { fill: none } </style><style type="text/css"> #svg33 .st0{fill:rgb(116, 80, 43);} </style><path class="st0" d="M74.989,69.13v9.976c0,0.828-0.672,1.5-1.5,1.5H56.455c-0.828,0-1.5-0.672-1.5-1.5V69.13H11.289v39.342 c0,1.933,1.567,3.5,3.5,3.5h98.421c1.933,0,3.5-1.567,3.5-3.5V69.13H74.989z"></path><path class="st0" d="M42.329,37.778H11.995c-0.438,0.584-0.706,1.302-0.706,2.088V64.13h43.666v-6.079c0-0.828,0.672-1.5,1.5-1.5 h17.034c0.828,0,1.5,0.672,1.5,1.5v6.079h41.721V39.866c0-0.786-0.269-1.504-0.706-2.088H87.615c-0.068-1.723-0.331-3.396-0.765-5 c-2.609-9.638-11.426-16.75-21.878-16.75s-19.271,7.113-21.879,16.75C42.659,34.382,42.397,36.055,42.329,37.778z M64.973,23.027 c6.545,0,12.158,4.038,14.498,9.75c0.638,1.558,1.02,3.241,1.122,5h-31.24c0.102-1.759,0.483-3.442,1.121-5 C52.813,27.065,58.428,23.027,64.973,23.027z"></path></g></svg>