<svg class="svgicon" id="svg17" preserveAspectRatio="xMidYMid meet" xmlns="http://www.w3.org/2000/svg" viewBox="0 0 60 60"><style> #svg17 path, #svg17 circle, #svg17 polygon, #svg17 rect { fill: rgb(54, 46, 167) } #svg17 defs &gt; path { fill: none } #svg17 path[fill="none"], #svg17 circle[fill="none"], #svg17 polygon[fill="none"], #svg17 rect[fill="none"] { fill: none } </style><style type="text/css"> #svg17 .st0{fill:none;stroke:rgb(54, 46, 167);stroke-width:1.5;stroke-linecap:round;stroke-linejoin:round;stroke-miterlimit:10;} </style><path class="st0" d="M37.662,46.455v1.727c0,0.951-0.433,1.842-1.184,2.602c0.148,0.352,0.227,0.723,0.227,1.105 c0,0.971-0.511,1.869-1.374,2.598c0.015,0.105,0.023,0.209,0.023,0.318c0,2-2.654,3.623-5.928,3.623 c-3.273,0-5.928-1.623-5.928-3.623c0-0.109,0.01-0.213,0.024-0.318c-0.862-0.732-1.373-1.627-1.373-2.598 c0-0.383,0.079-0.754,0.227-1.105c-0.751-0.76-1.185-1.65-1.185-2.602v-1.727"></path><path class="st0" d="M45.625,30.574c0-8.946-7.252-16.197-16.198-16.197c-8.945,0-16.197,7.25-16.197,16.197 c0,5.917,3.172,11.09,7.908,13.917v1.965c0,0,1.719,1.588,8.247,1.588c6.527,0,8.332-1.588,8.332-1.588V44.49 C42.453,41.664,45.625,36.49,45.625,30.574z"></path><line class="st0" x1="30.087" y1="1.573" x2="30.087" y2="10.299"></line><line class="st0" x1="44.413" y1="16.16" x2="50.491" y2="10.082"></line><line class="st0" x1="50.317" y1="30.574" x2="59" y2="30.574"></line><line class="st0" x1="15.587" y1="16.16" x2="9.509" y2="10.082"></line><line class="st0" x1="9.683" y1="30.574" x2="1" y2="30.574"></line></svg>