<svg class="svgicon" id="svg15" preserveAspectRatio="xMidYMid meet" xmlns="http://www.w3.org/2000/svg" viewBox="0 0 60 60"><style> #svg15 path, #svg15 circle, #svg15 polygon, #svg15 rect { fill: rgb(239, 109, 167) } #svg15 defs &gt; path { fill: none } #svg15 path[fill="none"], #svg15 circle[fill="none"], #svg15 polygon[fill="none"], #svg15 rect[fill="none"] { fill: none } </style><style type="text/css"> #svg15 .st0{fill:rgb(239, 109, 167);} #svg15 .st1{fill:none;stroke:rgb(239, 109, 167);stroke-width:1.5;stroke-linecap:round;stroke-linejoin:round;stroke-miterlimit:10;} </style><path class="st0" d="M1.047,35.256c-0.2,0-0.395-0.08-0.538-0.228c-0.189-0.194-0.258-0.476-0.181-0.736l1.877-6.308 c-1.28-1.79-1.955-3.8-1.955-5.837c0-6.653,7.009-12.066,15.623-12.066c8.029,0,14.709,4.643,15.538,10.8 c0.056,0.411-0.232,0.788-0.644,0.843c-0.403,0.057-0.787-0.233-0.843-0.643c-0.729-5.416-6.771-9.5-14.052-9.5 c-7.787,0-14.123,4.74-14.123,10.566c0,1.823,0.648,3.633,1.877,5.236c0.146,0.19,0.191,0.44,0.123,0.67l-1.603,5.383 l6.989-1.862c0.151-0.04,0.312-0.032,0.456,0.022c1.979,0.741,4.091,1.116,6.28,1.116c1.706,0,3.374-0.226,4.957-0.672 c0.401-0.114,0.813,0.121,0.925,0.519c0.112,0.398-0.12,0.813-0.519,0.925c-3.842,1.082-8.184,0.953-11.942-0.4L1.24,35.231 C1.176,35.248,1.111,35.256,1.047,35.256z"></path><path class="st0" d="M16.273,30.031c-0.487,0-0.951-0.186-1.305-0.523c-1.107-0.886-6.871-5.699-6.871-9.361 c0-2.749,1.995-4.745,4.744-4.745c1.324,0,2.566,0.547,3.456,1.494c0.88-0.937,2.146-1.494,3.491-1.494 c2.75,0,4.746,1.996,4.746,4.745c0,3.583-5.835,8.461-7.004,9.403C17.225,29.845,16.761,30.031,16.273,30.031z M12.842,16.901 c-1.91,0-3.244,1.334-3.244,3.245c0,2.475,4.159,6.468,6.358,8.234c0.244,0.227,0.438,0.184,0.587,0.042 c2.276-1.836,6.492-5.866,6.492-8.276c0-1.91-1.335-3.245-3.246-3.245c-1.093,0-2.11,0.533-2.721,1.426l-0.184,0.236 c-0.142,0.181-0.358,0.287-0.588,0.287c0,0-0.001,0-0.002,0c-0.229,0-0.445-0.104-0.587-0.284l-0.104-0.13 C14.96,17.454,13.942,16.901,12.842,16.901z"></path><path class="st0" d="M58.941,49.918c-0.064,0-0.129-0.008-0.193-0.025l-10.239-2.73c-2.629,0.953-5.423,1.436-8.308,1.436 c-10.78,0-19.551-6.753-19.551-15.053c0-8.299,8.771-15.051,19.551-15.051c10.779,0,19.549,6.752,19.549,15.051 c0,2.563-0.86,5.093-2.492,7.341l2.402,8.068c0.077,0.26,0.009,0.542-0.181,0.736C59.336,49.838,59.142,49.918,58.941,49.918z M48.473,45.627c0.064,0,0.13,0.008,0.193,0.025l9.174,2.446l-2.127-7.145c-0.068-0.23-0.022-0.479,0.124-0.67 c1.578-2.059,2.413-4.389,2.413-6.738c0-7.472-8.097-13.551-18.049-13.551c-9.953,0-18.051,6.079-18.051,13.551 c0,7.473,8.098,13.553,18.051,13.553c2.788,0,5.482-0.479,8.009-1.424C48.295,45.643,48.384,45.627,48.473,45.627z"></path><path class="st0" d="M40.232,43.832c-0.568,0-1.106-0.216-1.516-0.609c-0.838-0.668-8.629-7.053-8.629-11.695 c0-3.363,2.441-5.803,5.805-5.803c1.693,0,3.276,0.729,4.371,1.984c1.081-1.242,2.696-1.984,4.416-1.984 c3.364,0,5.807,2.44,5.807,5.803c0,4.421-7.319,10.554-8.787,11.738C41.339,43.616,40.801,43.832,40.232,43.832z M35.893,27.225c-2.534,0-4.305,1.77-4.305,4.303c0,3.209,5.31,8.317,8.118,10.569c0.359,0.338,0.743,0.294,1.003,0.044 c2.895-2.34,8.277-7.506,8.277-10.613c0-2.534-1.771-4.303-4.307-4.303c-1.449,0-2.797,0.706-3.605,1.887l-0.229,0.292 c-0.143,0.179-0.358,0.283-0.587,0.283c-0.001,0-0.003,0-0.004,0c-0.23-0.001-0.446-0.108-0.588-0.289l-0.129-0.166 C38.701,27.956,37.353,27.225,35.893,27.225z"></path></svg>