<svg class="svgicon" id="svg50" preserveAspectRatio="xMidYMid meet" xmlns="http://www.w3.org/2000/svg" viewBox="0 0 128 128"><style> #svg50 path, #svg50 circle, #svg50 polygon, #svg50 rect { fill: rgb(237, 113, 158) } #svg50 defs &gt; path { fill: none }  #svg50 path[fill="none"], #svg50 circle[fill="none"], #svg50 polygon[fill="none"], #svg50 rect[fill="none"] { fill: none } </style><path d="M101.56,48.248c-0.059-0.441-0.438-0.773-0.881-0.773c-0.04,0-0.08,0.003-0.121,0.008c-0.235,0.031-0.445,0.153-0.59,0.342 s-0.207,0.424-0.176,0.659l0.917,6.837c0.063,0.481,0.509,0.831,1.001,0.766c0.487-0.065,0.83-0.516,0.766-1.003L101.56,48.248z"></path><path d="M100.77,68.983c-0.084-0.026-0.173-0.039-0.263-0.039c-0.394,0-0.734,0.252-0.851,0.629l-2.035,6.591 c-0.145,0.47,0.12,0.971,0.592,1.116c0.084,0.026,0.173,0.04,0.261,0.04c0.395,0,0.737-0.252,0.854-0.629l2.033-6.591 C101.506,69.631,101.241,69.13,100.77,68.983z"></path><path d="M36.64,89.51c-0.17-0.184-0.402-0.286-0.653-0.286c-0.227,0-0.442,0.085-0.607,0.239c-0.358,0.334-0.38,0.9-0.046,1.261 l4.69,5.055c0.324,0.352,0.91,0.374,1.26,0.048c0.176-0.164,0.276-0.384,0.286-0.622c0.009-0.238-0.075-0.466-0.238-0.641 L36.64,89.51z"></path><path d="M92.081,89.225c-0.252,0-0.484,0.102-0.656,0.286l-4.689,5.055c-0.163,0.175-0.247,0.403-0.238,0.641 s0.11,0.459,0.285,0.621c0.352,0.326,0.938,0.303,1.26-0.046l4.691-5.056c0.335-0.361,0.313-0.927-0.047-1.263 C92.522,89.31,92.307,89.225,92.081,89.225z"></path><path d="M27.357,55.322l0.917-6.837c0.031-0.236-0.031-0.47-0.176-0.66s-0.354-0.311-0.59-0.342 c-0.041-0.005-0.081-0.008-0.121-0.008c-0.443,0-0.822,0.333-0.881,0.773l-0.915,6.836c-0.033,0.237,0.03,0.471,0.175,0.66 c0.144,0.189,0.354,0.311,0.59,0.343C26.849,56.154,27.294,55.802,27.357,55.322z"></path><path d="M28.41,69.575c-0.116-0.378-0.458-0.63-0.851-0.63c-0.09,0-0.179,0.013-0.266,0.04c-0.469,0.145-0.733,0.646-0.588,1.115 l2.032,6.591c0.143,0.46,0.649,0.733,1.116,0.589c0.469-0.145,0.735-0.646,0.591-1.117L28.41,69.575z"></path><path d="M101.916,25.494c-2.12-3.326-6.392-8.506-9.522-11.549c-0.351-0.34-0.952-0.336-1.299,0.01L77.144,27.907 c-0.184,0.183-0.281,0.435-0.27,0.692c0.012,0.259,0.133,0.502,0.33,0.669c2.9,2.428,7.42,7.8,9.866,11.731l0.315,0.505 l-0.039,0.04c3.063,5.486,4.681,11.832,4.681,18.392c0,18.367-12.574,33.309-28.027,33.309c-15.456,0-28.029-14.942-28.029-33.309 c0-6.624,1.651-13.042,4.773-18.56c2.502-4.161,7.622-10.104,10.968-12.737c0.207-0.162,0.334-0.406,0.35-0.671 c0.016-0.263-0.083-0.521-0.271-0.709l-14.06-14.06c-0.175-0.175-0.406-0.271-0.653-0.271c-0.234,0-0.458,0.088-0.63,0.248 c-3.385,3.155-8.019,8.658-10.329,12.266c-6.24,9.747-9.539,21.384-9.539,33.655c0,30.864,21.271,55.975,47.42,55.975 c26.146,0,47.42-25.11,47.42-55.975C111.42,46.87,108.134,35.25,101.916,25.494z M24.574,56.655 c-0.389-0.508-0.556-1.137-0.47-1.77l0.915-6.836c0.158-1.182,1.177-2.074,2.368-2.074c0.107,0,0.214,0.007,0.32,0.022 c0.633,0.083,1.195,0.41,1.583,0.918c0.388,0.508,0.555,1.136,0.47,1.769l-0.916,6.837c-0.157,1.182-1.174,2.075-2.367,2.075 c-0.106,0-0.215-0.008-0.32-0.021C25.523,57.489,24.961,57.162,24.574,56.655z M30.298,78.713c-0.23,0.072-0.468,0.107-0.705,0.107 c-1.055,0-1.974-0.677-2.288-1.685l-2.032-6.593c-0.389-1.257,0.319-2.6,1.579-2.991c0.231-0.071,0.47-0.106,0.708-0.106 c1.057,0,1.975,0.679,2.283,1.689l2.036,6.587C32.266,76.983,31.557,78.325,30.298,78.713z M29.222,25.633l0.314-0.474 c1.833-2.772,3.893-5.293,6.121-7.491c0.376-0.371,0.867-0.575,1.381-0.575c0.541,0,1.049,0.223,1.432,0.628l8.394,8.884 c0.408,0.43,0.624,1.029,0.59,1.641c-0.034,0.613-0.315,1.181-0.771,1.558c-2.254,1.877-4.254,4.184-5.941,6.855l-0.44,0.698 L29.222,25.633z M42.304,96.927c-0.443,0.412-1.021,0.64-1.627,0.64c-0.664,0-1.304-0.28-1.754-0.768l-4.689-5.055 c-0.896-0.966-0.84-2.482,0.124-3.381c0.446-0.412,1.024-0.639,1.629-0.639c0.663,0,1.303,0.279,1.754,0.766l4.691,5.055 c0.435,0.469,0.661,1.079,0.636,1.717C43.043,95.901,42.772,96.493,42.304,96.927z M93.833,91.744l-4.69,5.056 c-0.449,0.487-1.089,0.767-1.753,0.767c-0.606,0-1.184-0.228-1.628-0.64c-0.468-0.434-0.739-1.025-0.763-1.664 c-0.025-0.639,0.201-1.249,0.637-1.717l4.69-5.055c0.451-0.487,1.091-0.766,1.755-0.766c0.605,0,1.182,0.227,1.626,0.638 C94.673,89.262,94.729,90.779,93.833,91.744z M87.722,37.742l-0.454-0.721c-1.604-2.542-3.479-4.764-5.572-6.603 c-0.449-0.393-0.722-0.971-0.748-1.586c-0.026-0.613,0.196-1.215,0.609-1.65l8.636-9.063c0.396-0.415,0.921-0.643,1.479-0.643 c0.547,0,1.064,0.22,1.457,0.62c2.059,2.101,3.988,4.501,5.73,7.135l0.32,0.484L87.722,37.742z M102.794,70.542l-2.033,6.591 c-0.312,1.009-1.23,1.687-2.287,1.687c-0.237,0-0.475-0.035-0.704-0.106c-1.259-0.39-1.969-1.731-1.582-2.991l2.036-6.591 c0.311-1.009,1.228-1.688,2.283-1.688c0.239,0,0.477,0.035,0.706,0.106C102.474,67.943,103.183,69.285,102.794,70.542z M101.91,57.574c-0.106,0.014-0.215,0.021-0.32,0.021c-1.192,0-2.211-0.893-2.368-2.077l-0.915-6.835 c-0.086-0.632,0.081-1.261,0.469-1.769c0.389-0.508,0.951-0.835,1.584-0.918c0.105-0.015,0.214-0.022,0.319-0.022 c1.192,0,2.21,0.892,2.368,2.075l0.915,6.835C104.137,56.192,103.216,57.398,101.91,57.574z"></path></svg>