<svg class="svgicon" id="svg25" preserveAspectRatio="xMidYMid meet" xmlns="http://www.w3.org/2000/svg" viewBox="0 0 128 128"><rect x="0" y="0" width="128" height="128" style="fill: rgba(212, 212, 212, 0.25)" rx="64" ry="64"></rect><g transform="scale(0.69) translate(28.753623188405808, 28.753623188405808)"><style> #svg25 path, #svg25 circle, #svg25 polygon, #svg25 rect { fill: rgb(212, 212, 212) } #svg25 defs &gt; path { fill: none }  #svg25 path[fill="none"], #svg25 circle[fill="none"], #svg25 polygon[fill="none"], #svg25 rect[fill="none"] { fill: none } </style><style type="text/css"> #svg25 .st0{fill:rgb(212, 212, 212);} </style><path class="st0" d="M109.107,36.771H88.443v-7.238c0-5.104-4.153-9.256-9.257-9.256H49.878c-5.104,0-9.257,4.153-9.257,9.256 v7.238H18.735c-4.856,0-8.807,3.95-8.807,8.806v53.34c0,4.856,3.95,8.807,8.807,8.807h90.372c4.854,0,8.805-3.95,8.805-8.807 v-53.34C117.912,40.721,113.962,36.771,109.107,36.771z M63.921,52.268c11.017,0,19.979,8.963,19.979,19.979 c0,11.016-8.963,19.979-19.979,19.979s-19.979-8.963-19.979-19.979C43.942,61.231,52.904,52.268,63.921,52.268z M46.921,29.532 c0-1.63,1.326-2.956,2.957-2.956h29.309c1.63,0,2.956,1.326,2.956,2.956v7.238H46.921V29.532z"></path><path class="st0" d="M52.561,75.847h7.76v7.759c0,1.988,1.612,3.601,3.601,3.601s3.6-1.612,3.6-3.601v-7.759h7.761 c1.987,0,3.6-1.612,3.6-3.6c0-1.988-1.612-3.601-3.6-3.601h-7.761v-7.76c0-1.988-1.611-3.6-3.6-3.6s-3.601,1.611-3.601,3.6v7.76 h-7.76c-1.988,0-3.6,1.612-3.6,3.601C48.961,74.235,50.572,75.847,52.561,75.847z"></path></g></svg>