<svg class="svgicon" id="svg47" preserveAspectRatio="xMidYMid meet" xmlns="http://www.w3.org/2000/svg" viewBox="0 0 128 128"><style> #svg47 path, #svg47 circle, #svg47 polygon, #svg47 rect { fill: rgb(55, 46, 168) } #svg47 defs &gt; path { fill: none }  #svg47 path[fill="none"], #svg47 circle[fill="none"], #svg47 polygon[fill="none"], #svg47 rect[fill="none"] { fill: none } </style><path d="M106.537,53.601c-0.052-2.578-0.259-10.869-0.311-13.449c-0.048-2.511,0.292-5.245-0.63-7.604 c-0.034-0.132-0.082-0.27-0.152-0.408c-0.188-0.371-0.646-0.711-1.093-0.811c-2.174-0.822-4.584-0.549-6.91-0.597 c-2.89-0.058-11.454-0.128-14.343-0.186c-3.342-0.069-3.457,4.223-1.021,5.653c1.219,0.708,8.853,0.645,10.208,0.782 c0.866,0.09,1.738,0.173,2.608,0.257c-1.889,1.89-6.604,6.606-8.493,8.494c-0.248,0.248-0.546,0.521-0.872,0.814 c-5.814-4.197-13.253-5.135-19.793-2.81c-8.109-4.242-18.359-2.957-25.174,3.857c-7.625,7.625-8.326,19.549-2.109,27.966 c-1.881,1.873-5.111,5.043-5.111,5.043c-1.354-1.354-2.627-2.628-3.412-3.413c-1.983-1.983-4.125-5.761-7.288-2.597 c-3.173,3.173,0.642,5.336,2.63,7.323c0.743,0.744,3.344,3.412,3.344,3.412c-1.387,1.387-0.395,0.394-1.193,1.196 c-1.984,1.983-7.17,5.527-4.006,8.691c3.174,3.175,6.744-2.045,8.731-4.034c0.795-0.794-0.213,0.213,1.159-1.159 c1.43,1.433,2.791,2.793,3.615,3.617c1.984,1.983,4.123,5.761,7.288,2.596c3.171-3.171-0.643-5.336-2.631-7.326 c-0.743-0.743-3.596-3.665-3.546-3.613c0.01-0.01,3.944-3.894,5.133-5.066c5.819,4.221,13.274,5.166,19.826,2.835 c8.111,4.243,18.361,2.958,25.176-3.857c7.614-7.613,8.326-19.515,2.136-27.933c0.298-0.331,0.574-0.634,0.825-0.885 c1.9-1.901,6.63-6.629,8.532-8.532c0.177,1.989,0.523,9.691,0.814,11.659c0.464,3.129,4.34,4.298,5.767,1.542 c0.148-0.195,0.242-0.442,0.281-0.731C106.587,54.066,106.589,53.819,106.537,53.601z M55.19,76.119 c-3.215-0.14-6.389-1.436-8.844-3.891c-5.207-5.206-5.207-13.648,0-18.854c2.928-2.927,6.878-4.208,10.701-3.844 C50.269,56.974,49.652,68.018,55.19,76.119z M65.2,72.228c-0.486,0.487-1.002,0.929-1.541,1.324 c-0.043-0.042-0.087-0.081-0.129-0.123c-5.205-5.208-5.205-13.648,0-18.854c0.486-0.487,1.002-0.928,1.541-1.324 c0.042,0.042,0.086,0.081,0.129,0.123C70.405,58.58,70.405,67.022,65.2,72.228z M82.384,73.429 c-2.927,2.927-6.877,4.208-10.701,3.843c6.779-7.442,7.395-18.488,1.852-26.589c3.217,0.138,6.395,1.435,8.85,3.892 C87.592,59.781,87.592,68.221,82.384,73.429z"></path></svg>